# xmcd CD database file
#
# Track frame offsets:
#	150
#	15010
#	56150
#	90345
#	109013
#	137315
#
# Disc length: 2246 seconds
#
# Revision: 1
# Processed by: cddbd v1.5.2PL0 Copyright (c) Steve Scherf et al.
# Submitted via: CDex 1.70beta2
#
DISCID=3708c406
DTITLE=菊地成孔とぺぺ・トルメント・アスカラール - 野生の思考 (Disc1)
DYEAR=2006
DGENRE=Jazz
TTITLE0=はなればなれに～映画「はなればなれに」より（J.L.ゴダール）
TTITLE1=組曲「キャバレー・タンガフリーク」1)孔雀
TTITLE2=組曲「キャバレー・タンガフリーク」2)生け花
TTITLE3=組曲「キャバレー・タンガフリーク」3)儀式
TTITLE4=組曲「キャバレー・タンガフリーク」4)夜の全裸
TTITLE5=チェルシー・ブリッジ
EXTD=YEAR: 2006
EXTT0=
EXTT1=
EXTT2=
EXTT3=
EXTT4=
EXTT5=
PLAYORDER=
